<svg aria-hidden="true" style="position: absolute; width: 0; height: 0; overflow: hidden;" version="1.1" xmlns="http://www.w3.org/2000/svg" xmlns:xlink="http://www.w3.org/1999/xlink">
<defs>
<symbol id="icon-facebook" viewBox="0 0 15 32">
<path   d="M9.707 31.22v-15.612h4.319l0.572-5.38h-4.891l0.007-2.693c0-1.403 0.134-2.155 2.153-2.155h2.7v-5.381h-4.319c-5.188 0-7.014 2.61-7.014 6.999v3.23h-3.234v5.38h3.234v15.611h6.473z"></path>
</symbol>
<symbol id="icon-instagram" viewBox="0 0 32 32">
<path  d="M16.004 7.796c-4.54 0-8.203 3.663-8.203 8.204s3.662 8.204 8.203 8.204c4.54 0 8.203-3.663 8.203-8.204s-3.662-8.204-8.203-8.204zM16.004 21.334c-2.934 0-5.333-2.392-5.333-5.334s2.392-5.334 5.333-5.334c2.941 0 5.333 2.392 5.333 5.334s-2.399 5.334-5.333 5.334zM26.455 7.46c0 1.064-0.857 1.914-1.913 1.914-1.064 0-1.913-0.857-1.913-1.914s0.857-1.914 1.913-1.914c1.057 0 1.913 0.857 1.913 1.914zM31.888 9.402c-0.121-2.563-0.707-4.834-2.584-6.705-1.87-1.871-4.14-2.456-6.703-2.585-2.641-0.15-10.558-0.15-13.2 0-2.556 0.121-4.826 0.707-6.703 2.578s-2.456 4.141-2.584 6.705c-0.15 2.642-0.15 10.561 0 13.203 0.121 2.563 0.707 4.834 2.584 6.705s4.141 2.456 6.703 2.585c2.641 0.15 10.558 0.15 13.2 0 2.563-0.121 4.833-0.707 6.703-2.585 1.87-1.871 2.456-4.141 2.584-6.705 0.15-2.642 0.15-10.554 0-13.196zM28.475 25.433c-0.557 1.399-1.635 2.478-3.041 3.042-2.106 0.835-7.103 0.643-9.43 0.643s-7.332 0.186-9.43-0.643c-1.399-0.557-2.477-1.635-3.041-3.042-0.835-2.106-0.643-7.105-0.643-9.433s-0.186-7.333 0.643-9.433c0.557-1.4 1.635-2.478 3.041-3.042 2.106-0.835 7.103-0.643 9.43-0.643s7.332-0.186 9.43 0.643c1.399 0.557 2.477 1.635 3.041 3.042 0.835 2.106 0.642 7.105 0.642 9.433s0.193 7.333-0.642 9.433z"></path>
</symbol>
<symbol id="icon-twitter" viewBox="0 0 38 32">
<path  d="M17.819 9.318l-0.079-1.303c-0.238-3.378 1.848-6.463 5.148-7.66 1.214-0.426 3.273-0.479 4.62-0.106 0.528 0.16 1.531 0.691 2.244 1.17l1.294 0.878 1.425-0.452c0.792-0.239 1.848-0.638 2.323-0.904 0.449-0.239 0.845-0.372 0.845-0.293 0 0.452-0.977 1.995-1.795 2.846-1.109 1.197-0.792 1.303 1.452 0.505 1.346-0.452 1.373-0.452 1.109 0.053-0.158 0.266-0.977 1.197-1.848 2.048-1.478 1.463-1.557 1.622-1.557 2.846 0 1.888-0.898 5.825-1.795 7.979-1.663 4.043-5.227 8.218-8.791 10.319-5.016 2.952-11.695 3.697-17.317 1.968-1.874-0.585-5.095-2.075-5.095-2.34 0-0.080 0.977-0.186 2.165-0.213 2.481-0.053 4.963-0.745 7.075-1.968l1.426-0.851-1.637-0.559c-2.323-0.798-4.409-2.633-4.936-4.362-0.159-0.559-0.106-0.585 1.373-0.585l1.531-0.027-1.294-0.612c-1.531-0.771-2.93-2.075-3.617-3.404-0.502-0.957-1.135-3.378-0.95-3.564 0.053-0.080 0.607 0.080 1.241 0.293 1.821 0.665 2.059 0.505 1.003-0.612-1.98-2.021-2.587-5.027-1.637-7.872l0.449-1.277 1.742 1.729c3.564 3.484 7.761 5.559 12.566 6.17l1.32 0.16z"></path>
</symbol>
<symbol id="icon-arrow-right" viewBox="0 0 20 32">
<path d="M18.188 15.594c0-0.25-0.125-0.531-0.313-0.719l-14.563-14.563c-0.188-0.188-0.469-0.313-0.719-0.313s-0.531 0.125-0.719 0.313l-1.563 1.563c-0.188 0.188-0.313 0.469-0.313 0.719s0.125 0.531 0.313 0.719l12.281 12.281-12.281 12.281c-0.188 0.187-0.313 0.469-0.313 0.719 0 0.281 0.125 0.531 0.313 0.719l1.563 1.563c0.188 0.187 0.469 0.312 0.719 0.312s0.531-0.125 0.719-0.312l14.563-14.563c0.188-0.187 0.313-0.469 0.313-0.719z"></path>
</symbol>
<symbol id="icon-arrow" viewBox="0 0 20 32">
<path d="M18.188 2.594c0-0.281-0.125-0.531-0.313-0.719l-1.563-1.563c-0.187-0.188-0.469-0.313-0.719-0.313s-0.531 0.125-0.719 0.313l-14.563 14.563c-0.188 0.187-0.313 0.469-0.313 0.719s0.125 0.531 0.313 0.719l14.563 14.563c0.188 0.187 0.469 0.312 0.719 0.312s0.531-0.125 0.719-0.312l1.563-1.563c0.188-0.187 0.313-0.469 0.313-0.719s-0.125-0.531-0.313-0.719l-12.281-12.281 12.281-12.281c0.188-0.188 0.313-0.469 0.313-0.719z"></path>
</symbol>
<symbol id="icon-arrow-bottom" viewBox="0 0 58 32">
<path d="M52.929 3.214c0.357 0.357 0.536 0.768 0.536 1.232s-0.179 0.875-0.536 1.232l-24.964 24.964c-0.357 0.357-0.768 0.536-1.232 0.536s-0.875-0.179-1.232-0.536l-24.964-24.964c-0.357-0.357-0.536-0.768-0.536-1.232s0.179-0.875 0.536-1.232l2.679-2.679c0.357-0.357 0.768-0.536 1.232-0.536s0.875 0.179 1.232 0.536l21.054 21.054 21.054-21.054c0.357-0.357 0.768-0.536 1.232-0.536s0.875 0.179 1.232 0.536l2.679 2.679z"></path>
</symbol>
</defs>
</svg>
